<?xml version="1.0" encoding="utf-8"?>
<!-- Generator: Adobe Illustrator 17.0.0, SVG Export Plug-In . SVG Version: 6.00 Build 0)  -->
<!DOCTYPE svg PUBLIC "-//W3C//DTD SVG 1.1//EN" "http://www.w3.org/Graphics/SVG/1.1/DTD/svg11.dtd">
<svg version="1.1" id="Layer_1" xmlns="http://www.w3.org/2000/svg" xmlns:xlink="http://www.w3.org/1999/xlink" x="0px" y="0px"
	 width="200px" height="150px" viewBox="0 0 200 150" enable-background="new 0 0 200 150" xml:space="preserve">
<path fill="none" stroke="#FFFFFF" stroke-linecap="round" stroke-miterlimit="10" d="M11.182,30.847C10.422,29.05,10,27.075,10,25
	c0-8.285,6.715-15,15-15s15,6.715,15,15s-6.715,15-15,15"/>
<polyline fill="none" stroke="#FFFFFF" stroke-linecap="round" stroke-miterlimit="10" points="17.276,23.098 11.096,31.469 
	2.724,25.289 "/>
<rect fill="none" width="50" height="50"/>
<path fill="none" stroke="#4D4D4D" stroke-linecap="round" stroke-miterlimit="10" d="M61.182,30.847C60.422,29.05,60,27.075,60,25
	c0-8.285,6.715-15,15-15s15,6.715,15,15s-6.715,15-15,15"/>
<polyline fill="none" stroke="#4D4D4D" stroke-linecap="round" stroke-miterlimit="10" points="67.276,23.098 61.096,31.469 
	52.724,25.289 "/>
<rect x="50" fill="none" width="50" height="50"/>
<rect y="50" fill="none" width="50" height="50"/>
<rect y="100" fill="none" width="50" height="50"/>
<rect x="100" fill="none" width="50" height="50"/>
<rect x="150" fill="none" width="50" height="50"/>
<rect x="50" y="50" fill="none" width="50" height="50"/>
<rect x="50" y="100" fill="none" width="50" height="50"/>
<rect x="100" y="50" fill="none" width="50" height="50"/>
<rect x="150" y="100" fill="none" width="50" height="50"/>
<rect x="100" y="100" fill="none" width="50" height="50"/>
<rect x="150" y="50" fill="none" width="50" height="50"/>
<circle fill="none" stroke="#4D4D4D" stroke-linecap="round" stroke-miterlimit="10" cx="175" cy="25" r="15"/>
<line fill="none" stroke="#4D4D4D" stroke-linecap="round" stroke-miterlimit="10" x1="175" y1="16" x2="175" y2="34"/>
<line fill="none" stroke="#4D4D4D" stroke-linecap="round" stroke-miterlimit="10" x1="175" y1="34" x2="184" y2="25"/>
<line fill="none" stroke="#4D4D4D" stroke-linecap="round" stroke-miterlimit="10" x1="175" y1="34" x2="166" y2="25"/>
<g>
	
		<circle fill="none" stroke="#4D4D4D" stroke-linecap="round" stroke-miterlimit="10" stroke-dasharray="2.9445,4.9075" cx="75" cy="75" r="15"/>
</g>
<g>
	
		<circle fill="none" stroke="#FFFFFF" stroke-linecap="round" stroke-miterlimit="10" stroke-dasharray="2.9445,4.9075" cx="25" cy="75" r="15"/>
</g>
<circle fill="none" stroke="#FFFFFF" stroke-linecap="round" stroke-miterlimit="10" cx="125" cy="75" r="15"/>
<polyline fill="none" stroke="#FFFFFF" stroke-linecap="round" stroke-miterlimit="10" points="133.513,69.452 123.836,81.183 
	117.09,74.887 "/>
<circle fill="none" stroke="#4D4D4D" stroke-linecap="round" stroke-miterlimit="10" cx="175" cy="75" r="15"/>
<polyline fill="none" stroke="#4D4D4D" stroke-linecap="round" stroke-miterlimit="10" points="183.513,69.452 173.836,81.183 
	167.09,74.887 "/>
<circle fill="none" stroke="#FFFFFF" stroke-linecap="round" stroke-miterlimit="10" cx="25" cy="125" r="15"/>
<circle fill="none" stroke="#4D4D4D" stroke-linecap="round" stroke-miterlimit="10" cx="75" cy="125" r="15"/>
<circle fill="none" stroke="#FFFFFF" stroke-linecap="round" stroke-miterlimit="10" cx="125" cy="25" r="15"/>
<line fill="none" stroke="#FFFFFF" stroke-linecap="round" stroke-miterlimit="10" x1="125" y1="16" x2="125" y2="34"/>
<line fill="none" stroke="#FFFFFF" stroke-linecap="round" stroke-miterlimit="10" x1="125" y1="34" x2="134" y2="25"/>
<line fill="none" stroke="#FFFFFF" stroke-linecap="round" stroke-miterlimit="10" x1="125" y1="34" x2="116" y2="25"/>
<g>
	<path fill="#4D4D4D" d="M74.942,129.083c-0.275,0-0.498-0.224-0.498-0.498v-1.161c0-0.773,0.248-1.66,2.182-1.66
		c1.866,0,3.067-1.088,3.295-2.984c0.074-0.61,0.127-2.165-0.97-3.402c-0.872-0.982-2.22-1.48-4.008-1.48
		c-1.595,0-2.783,0.439-3.533,1.305c-0.636,0.735-0.752,1.555-0.765,1.979v0.013v0.013c0,0.274-0.219,0.489-0.498,0.489
		c-0.275,0-0.498-0.228-0.498-0.508c0-0.504,0.208-1.612,0.989-2.566c0.936-1.143,2.384-1.722,4.306-1.722
		c2.599,0,4.019,0.987,4.753,1.815c0.961,1.084,1.404,2.608,1.215,4.183c-0.431,3.584-3.389,3.862-4.285,3.862
		c-0.139,0-0.264,0.004-0.371,0.012l-0.814,0.062v1.749C75.44,128.859,75.216,129.083,74.942,129.083z"/>
	<path fill="#4D4D4D" d="M74.942,133.9c-0.217,0-0.442-0.094-0.601-0.252c-0.15-0.15-0.242-0.373-0.242-0.591
		c0-0.22,0.092-0.444,0.245-0.597c0.156-0.156,0.38-0.249,0.598-0.249c0.22,0,0.439,0.092,0.601,0.252
		c0.151,0.151,0.243,0.374,0.243,0.595c0,0.219-0.092,0.441-0.245,0.595C75.384,133.806,75.159,133.9,74.942,133.9z"/>
</g>
<circle fill="none" stroke="#4D4D4D" stroke-linecap="round" stroke-miterlimit="10" cx="175" cy="125" r="15"/>
<g>
	<path fill="#4D4D4D" d="M174.942,129.083c-0.275,0-0.498-0.224-0.498-0.498v-1.161c0-0.773,0.248-1.66,2.182-1.66
		c1.866,0,3.067-1.088,3.295-2.984c0.074-0.61,0.127-2.165-0.97-3.402c-0.872-0.982-2.22-1.48-4.008-1.48
		c-1.595,0-2.783,0.439-3.533,1.305c-0.636,0.735-0.752,1.555-0.765,1.979v0.013v0.013c0,0.274-0.219,0.489-0.498,0.489
		c-0.275,0-0.498-0.228-0.498-0.508c0-0.504,0.208-1.612,0.989-2.566c0.936-1.143,2.384-1.722,4.306-1.722
		c2.599,0,4.019,0.987,4.753,1.815c0.961,1.084,1.404,2.608,1.215,4.183c-0.431,3.584-3.389,3.862-4.285,3.862
		c-0.139,0-0.264,0.004-0.371,0.012l-0.814,0.062v1.749C175.44,128.859,175.216,129.083,174.942,129.083z"/>
	<path fill="#4D4D4D" d="M174.942,133.9c-0.217,0-0.442-0.094-0.601-0.252c-0.15-0.15-0.242-0.373-0.242-0.591
		c0-0.22,0.092-0.444,0.245-0.597c0.156-0.156,0.38-0.249,0.598-0.249c0.22,0,0.439,0.092,0.601,0.252
		c0.151,0.151,0.243,0.374,0.243,0.595c0,0.219-0.092,0.441-0.245,0.595C175.384,133.806,175.159,133.9,174.942,133.9z"/>
</g>
<g>
	<path fill="#FFFFFF" d="M24.942,129.083c-0.275,0-0.498-0.224-0.498-0.498v-1.161c0-0.773,0.248-1.66,2.182-1.66
		c1.866,0,3.067-1.088,3.295-2.984c0.074-0.61,0.127-2.165-0.97-3.402c-0.872-0.982-2.22-1.48-4.008-1.48
		c-1.595,0-2.783,0.439-3.533,1.305c-0.636,0.735-0.752,1.555-0.765,1.979v0.013v0.013c0,0.274-0.219,0.489-0.498,0.489
		c-0.275,0-0.498-0.228-0.498-0.508c0-0.504,0.208-1.612,0.989-2.566c0.936-1.143,2.384-1.722,4.306-1.722
		c2.599,0,4.019,0.987,4.753,1.815c0.961,1.084,1.404,2.608,1.215,4.183c-0.431,3.584-3.389,3.862-4.285,3.862
		c-0.139,0-0.264,0.004-0.371,0.012l-0.814,0.062v1.749C25.44,128.859,25.216,129.083,24.942,129.083z"/>
	<path fill="#FFFFFF" d="M24.942,133.9c-0.217,0-0.442-0.094-0.601-0.252c-0.15-0.15-0.242-0.373-0.242-0.591
		c0-0.22,0.092-0.444,0.245-0.597c0.156-0.156,0.38-0.249,0.598-0.249c0.22,0,0.439,0.092,0.601,0.252
		c0.151,0.151,0.243,0.374,0.243,0.595c0,0.219-0.092,0.441-0.245,0.595C25.384,133.806,25.159,133.9,24.942,133.9z"/>
</g>
<line fill="none" stroke="#4D4D4D" stroke-linecap="round" stroke-miterlimit="10" x1="185.604" y1="135.604" x2="164.395" y2="114.395"/>
<circle fill="none" stroke="#FFFFFF" stroke-linecap="round" stroke-miterlimit="10" cx="125.301" cy="125" r="15"/>
<g>
	<path fill="#FFFFFF" d="M125.243,129.083c-0.275,0-0.498-0.224-0.498-0.498v-1.161c0-0.773,0.248-1.66,2.182-1.66
		c1.866,0,3.067-1.088,3.295-2.984c0.074-0.61,0.127-2.165-0.97-3.402c-0.872-0.982-2.22-1.48-4.008-1.48
		c-1.595,0-2.783,0.439-3.533,1.305c-0.636,0.735-0.752,1.555-0.765,1.979v0.013v0.013c0,0.274-0.219,0.489-0.498,0.489
		c-0.275,0-0.498-0.228-0.498-0.508c0-0.504,0.208-1.612,0.989-2.566c0.936-1.143,2.384-1.722,4.306-1.722
		c2.599,0,4.019,0.987,4.753,1.815c0.961,1.084,1.404,2.608,1.215,4.183c-0.431,3.584-3.389,3.862-4.285,3.862
		c-0.139,0-0.264,0.004-0.371,0.012l-0.814,0.062v1.749C125.742,128.859,125.518,129.083,125.243,129.083z"/>
	<path fill="#FFFFFF" d="M125.243,133.9c-0.217,0-0.442-0.094-0.601-0.252c-0.15-0.15-0.242-0.373-0.242-0.591
		c0-0.22,0.092-0.444,0.245-0.597c0.156-0.156,0.38-0.249,0.598-0.249c0.22,0,0.439,0.092,0.601,0.252
		c0.151,0.151,0.243,0.374,0.243,0.595c0,0.219-0.092,0.441-0.245,0.595C125.686,133.806,125.46,133.9,125.243,133.9z"/>
</g>
<line fill="none" stroke="#FFFFFF" stroke-linecap="round" stroke-miterlimit="10" x1="135.906" y1="135.604" x2="114.697" y2="114.395"/>
</svg>
