<?xml version="1.0" encoding="utf-8"?>
<!-- Generator: Adobe Illustrator 17.0.0, SVG Export Plug-In . SVG Version: 6.00 Build 0)  -->
<!DOCTYPE svg PUBLIC "-//W3C//DTD SVG 1.1//EN" "http://www.w3.org/Graphics/SVG/1.1/DTD/svg11.dtd">
<svg version="1.1" id="Layer_1" xmlns="http://www.w3.org/2000/svg" xmlns:xlink="http://www.w3.org/1999/xlink" x="0px" y="0px"
	 width="200px" height="100px" viewBox="0 0 200 100" enable-background="new 0 0 200 100" xml:space="preserve">
<path fill="none" stroke="#FFFFFF" stroke-linecap="round" stroke-miterlimit="10" d="M11.182,30.847C10.422,29.05,10,27.075,10,25
	c0-8.285,6.715-15,15-15s15,6.715,15,15s-6.715,15-15,15"/>
<polyline fill="none" stroke="#FFFFFF" stroke-linecap="round" stroke-miterlimit="10" points="17.276,23.098 11.096,31.469 
	2.724,25.289 "/>
<rect fill="none" width="50" height="50"/>
<path fill="none" stroke="#4D4D4D" stroke-linecap="round" stroke-miterlimit="10" d="M61.182,30.847C60.422,29.05,60,27.075,60,25
	c0-8.285,6.715-15,15-15s15,6.715,15,15s-6.715,15-15,15"/>
<polyline fill="none" stroke="#4D4D4D" stroke-linecap="round" stroke-miterlimit="10" points="67.276,23.098 61.096,31.469 
	52.724,25.289 "/>
<rect x="50" fill="none" width="50" height="50"/>
<rect y="50" fill="none" width="50" height="50"/>
<rect x="100" fill="none" width="50" height="50"/>
<rect x="150" fill="none" width="50" height="50"/>
<rect x="50" y="50" fill="none" width="50" height="50"/>
<rect x="100" y="50" fill="none" width="50" height="50"/>
<rect x="150" y="50" fill="none" width="50" height="50"/>
<circle fill="none" stroke="#4D4D4D" stroke-linecap="round" stroke-miterlimit="10" cx="175" cy="25" r="15"/>
<line fill="none" stroke="#4D4D4D" stroke-linecap="round" stroke-miterlimit="10" x1="175" y1="16" x2="175" y2="34"/>
<line fill="none" stroke="#4D4D4D" stroke-linecap="round" stroke-miterlimit="10" x1="175" y1="34" x2="184" y2="25"/>
<line fill="none" stroke="#4D4D4D" stroke-linecap="round" stroke-miterlimit="10" x1="175" y1="34" x2="166" y2="25"/>
<g>
	
		<circle fill="none" stroke="#4D4D4D" stroke-linecap="round" stroke-miterlimit="10" stroke-dasharray="2.9445,4.9075" cx="75" cy="75" r="15"/>
</g>
<g>
	
		<circle fill="none" stroke="#FFFFFF" stroke-linecap="round" stroke-miterlimit="10" stroke-dasharray="2.9445,4.9075" cx="25" cy="75" r="15"/>
</g>
<circle fill="none" stroke="#FFFFFF" stroke-linecap="round" stroke-miterlimit="10" cx="125" cy="75" r="15"/>
<polyline fill="none" stroke="#FFFFFF" stroke-linecap="round" stroke-miterlimit="10" points="133.513,69.452 123.836,81.183 
	117.09,74.887 "/>
<circle fill="none" stroke="#4D4D4D" stroke-linecap="round" stroke-miterlimit="10" cx="175" cy="75" r="15"/>
<polyline fill="none" stroke="#4D4D4D" stroke-linecap="round" stroke-miterlimit="10" points="183.513,69.452 173.836,81.183 
	167.09,74.887 "/>
<circle fill="none" stroke="#FFFFFF" stroke-linecap="round" stroke-miterlimit="10" cx="125" cy="25" r="15"/>
<line fill="none" stroke="#FFFFFF" stroke-linecap="round" stroke-miterlimit="10" x1="125" y1="16" x2="125" y2="34"/>
<line fill="none" stroke="#FFFFFF" stroke-linecap="round" stroke-miterlimit="10" x1="125" y1="34" x2="134" y2="25"/>
<line fill="none" stroke="#FFFFFF" stroke-linecap="round" stroke-miterlimit="10" x1="125" y1="34" x2="116" y2="25"/>
</svg>
